<?xml version="1.0" standalone="no"?>
<!DOCTYPE svg PUBLIC "-//W3C//DTD SVG 20010904//EN"
 "http://www.w3.org/TR/2001/REC-SVG-20010904/DTD/svg10.dtd">
<svg version="1.0" xmlns="http://www.w3.org/2000/svg"
 width="260.000000pt" height="260.000000pt" viewBox="0 0 260.000000 260.000000"
 preserveAspectRatio="xMidYMid meet">
<metadata>
Created by potrace 1.14, written by Peter Selinger 2001-2017
</metadata>
<g transform="translate(0.000000,260.000000) scale(0.100000,-0.100000)"
fill="#000000" stroke="none">
<path d="M1265 1896 c-16 -16 -31 -22 -44 -19 -25 6 -71 -37 -71 -67 0 -11 -7
-20 -15 -20 -23 0 -48 -46 -42 -78 3 -16 0 -35 -9 -46 -8 -11 -14 -27 -13 -35
0 -14 1 -14 6 -1 14 36 23 39 61 20 20 -10 54 -22 75 -25 20 -4 37 -11 37 -15
0 -41 -114 -56 -150 -20 -16 16 -20 17 -20 5 0 -9 7 -18 15 -21 9 -4 12 -15 9
-33 -7 -32 28 -81 57 -81 12 0 19 -7 19 -20 0 -26 43 -54 75 -48 16 3 30 -1
41 -13 20 -22 68 -25 86 -5 8 8 26 12 49 9 30 -4 39 -1 62 26 14 17 32 31 41
31 22 0 58 51 53 77 -3 16 3 27 20 39 22 13 24 21 19 52 -7 40 -8 57 -5 99 1
18 -7 34 -25 49 -14 13 -26 32 -26 43 0 26 -38 61 -66 61 -12 0 -29 11 -38 25
-12 18 -25 25 -49 25 -18 0 -38 -5 -43 -10 -8 -8 -15 -6 -24 5 -19 22 -58 18
-85 -9z m72 6 c9 -6 9 -17 -2 -47 -8 -22 -14 -57 -15 -78 0 -31 -3 -38 -17
-35 -44 8 -60 125 -21 152 25 18 37 19 55 8z m117 -18 c14 -14 12 -19 -22 -53
-20 -21 -44 -48 -53 -61 -9 -14 -20 -20 -27 -16 -18 11 -14 55 8 104 16 36 23
42 49 42 16 0 37 -7 45 -16z m-214 -59 c0 -18 7 -49 16 -70 34 -82 -38 -62
-79 21 l-22 46 28 24 c35 30 57 22 57 -21z m300 5 c27 -27 26 -50 -3 -50 -13
0 -45 -11 -72 -25 -51 -25 -65 -25 -65 2 0 22 77 93 100 93 11 0 29 -9 40 -20z
m-371 -83 c11 -18 34 -43 52 -56 29 -22 31 -25 15 -37 -21 -15 -63 -5 -106 26
-31 22 -37 48 -20 81 16 28 36 23 59 -14z m425 -6 c21 -23 18 -68 -4 -62 -8 2
-43 6 -77 9 -52 4 -63 7 -63 22 0 11 14 24 38 33 51 22 86 21 106 -2z m-25
-82 c38 -13 56 -50 41 -80 -6 -10 -12 -19 -14 -19 -2 0 -27 16 -56 35 -29 19
-58 35 -66 35 -14 0 -19 22 -7 33 10 11 67 8 102 -4z m-36 -88 c44 -40 51 -58
32 -87 -20 -32 -39 -30 -54 4 -7 15 -24 44 -39 65 -20 31 -23 40 -12 47 18 11
39 3 73 -29z m-255 -19 c5 -17 -44 -59 -85 -73 -32 -10 -37 -9 -61 14 -36 37
-24 57 35 58 26 0 57 4 68 9 24 10 37 8 43 -8z m168 0 c41 -27 58 -134 25
-152 -43 -22 -49 -14 -53 68 -4 94 -1 104 28 84z m-118 -41 c4 -28 -40 -97
-68 -106 -24 -8 -70 18 -70 39 0 8 10 16 23 20 13 3 39 21 58 40 38 39 52 40
57 7z m66 -49 c-1 -35 -6 -68 -11 -73 -11 -11 -70 -16 -79 -6 -3 3 9 37 28 76
43 92 63 93 62 3z"/>
<path d="M673 1903 c-15 -5 -19 -193 -5 -193 5 0 17 9 28 21 15 17 19 37 19
100 0 81 -4 88 -42 72z"/>
<path d="M810 1826 c0 -78 2 -85 25 -100 l25 -16 0 94 c0 76 -3 95 -16 100
-31 12 -34 5 -34 -78z"/>
<path d="M1863 1874 c-16 -26 -16 -27 6 -45 30 -24 48 -24 61 0 15 29 12 58
-6 65 -29 11 -43 6 -61 -20z"/>
<path d="M544 1813 c-17 -25 -19 -47 -18 -175 1 -125 4 -152 20 -175 l18 -28
7 25 c10 37 11 380 0 380 -5 0 -17 -12 -27 -27z"/>
<path d="M945 1640 c0 -110 3 -200 6 -200 10 0 36 34 43 57 12 39 16 187 6
247 -8 51 -31 96 -49 96 -3 0 -6 -90 -6 -200z"/>
<path d="M2063 1813 c-7 -3 -13 -16 -13 -29 0 -22 4 -25 27 -22 16 2 29 10 31
20 4 18 -26 38 -45 31z"/>
<path d="M1716 1781 c-23 -25 -27 -84 -6 -88 8 -2 28 7 44 20 27 22 28 25 15
52 -18 36 -31 40 -53 16z"/>
<path d="M1867 1732 c-10 -10 -17 -26 -17 -35 0 -22 36 -40 66 -33 45 12 24
86 -24 86 -5 0 -16 -8 -25 -18z"/>
<path d="M2087 1726 c-9 -22 19 -41 38 -26 8 7 15 19 15 26 0 19 -46 18 -53 0z"/>
<path d="M2186 1714 c-9 -8 -16 -24 -16 -34 0 -19 25 -50 41 -50 15 0 21 44
10 73 -12 31 -14 32 -35 11z"/>
<path d="M1680 1620 c0 -33 24 -50 42 -32 17 17 1 62 -22 62 -16 0 -20 -7 -20
-30z"/>
<path d="M2019 1599 c-18 -18 -19 -23 -6 -41 7 -12 23 -28 34 -35 17 -12 23
-10 46 11 32 30 33 40 7 66 -26 26 -55 25 -81 -1z"/>
<path d="M1774 1579 c-22 -24 -11 -49 29 -63 31 -11 57 6 57 38 0 47 -52 62
-86 25z"/>
<path d="M665 1528 c-3 -18 -5 -60 -3 -93 3 -57 4 -60 31 -63 26 -3 27 -2 27
45 0 76 -11 123 -31 133 -15 9 -19 5 -24 -22z"/>
<path d="M823 1541 c-17 -16 -20 -30 -19 -98 1 -72 3 -78 21 -75 33 6 37 16
36 91 -1 91 -9 109 -38 82z"/>
<path d="M1914 1475 c-4 -9 -2 -21 4 -27 16 -16 47 -5 47 17 0 26 -42 34 -51
10z"/>
<path d="M2006 1454 c-19 -19 -21 -58 -3 -72 8 -7 22 -6 45 3 38 16 45 57 13
75 -27 14 -37 13 -55 -6z"/>
<path d="M575 986 c-37 -17 -80 -62 -94 -99 -54 -141 92 -282 232 -224 45 19
62 41 43 56 -12 10 -20 9 -41 -5 -55 -36 -143 -16 -181 41 -20 31 -20 106 1
138 38 59 122 79 178 42 22 -14 30 -15 42 -5 12 10 13 15 3 28 -33 39 -126 53
-183 28z"/>
<path d="M825 988 c-3 -8 -4 -86 -3 -173 3 -155 4 -160 25 -163 17 -3 38 20
110 122 48 69 91 125 96 126 4 0 7 -56 7 -125 0 -118 1 -125 20 -125 19 0 20
7 20 175 0 226 -2 227 -132 45 l-93 -131 -5 128 c-4 111 -7 128 -23 131 -9 2
-19 -3 -22 -10z"/>
<path d="M1154 987 c-2 -7 -3 -85 -2 -172 l3 -160 69 -3 c85 -4 120 10 141 54
35 75 -9 135 -105 142 l-60 4 0 49 0 49 60 0 c57 0 60 1 60 25 0 25 -1 25 -80
25 -57 0 -82 -4 -86 -13z m164 -199 c7 -7 12 -24 12 -38 0 -38 -18 -50 -77
-50 l-53 0 0 50 0 50 53 0 c29 0 58 -5 65 -12z"/>
<path d="M1400 975 c0 -23 4 -25 40 -25 l40 0 0 -151 c0 -150 0 -150 23 -147
22 3 22 6 25 150 l3 147 37 3 c29 2 37 7 37 23 0 19 -8 20 -102 23 l-103 3 0
-26z"/>
<path d="M1740 989 c-27 -11 -90 -68 -90 -81 0 -17 43 -7 70 16 63 52 150 37
198 -34 l23 -35 -100 -3 c-100 -3 -101 -3 -101 -27 0 -25 0 -25 100 -25 110 0
115 -5 62 -62 -58 -63 -152 -58 -200 12 -28 41 -62 53 -62 22 0 -26 59 -93 96
-108 157 -66 305 105 219 252 -41 69 -140 103 -215 73z"/>
<path d="M2040 825 c0 -167 1 -175 20 -175 17 0 19 8 22 83 l3 82 54 -82 c42
-66 58 -83 77 -83 13 0 24 2 24 5 0 3 -27 47 -60 98 -33 52 -60 98 -60 103 0
5 21 36 45 68 25 33 45 63 45 68 0 4 -10 8 -23 8 -16 0 -35 -16 -62 -52 l-40
-53 -3 53 c-3 44 -6 52 -23 52 -18 0 -19 -8 -19 -175z"/>
</g>
</svg>
